<?xml version="1.0" encoding="UTF-8"?>
<svg width="64" height="64" viewBox="0 0 64 64" xmlns="http://www.w3.org/2000/svg">
    <rect width="64" height="64" rx="12" fill="#1a56db"/>
    <path d="M38.5 21h-13a4.5 4.5 0 00-4.5 4.5v13a4.5 4.5 0 004.5 4.5h13a4.5 4.5 0 004.5-4.5v-13a4.5 4.5 0 00-4.5-4.5zm-6.5 19c-4.142 0-7.5-3.358-7.5-7.5s3.358-7.5 7.5-7.5 7.5 3.358 7.5 7.5-3.358 7.5-7.5 7.5zm7.5-13.5a1.5 1.5 0 110-3 1.5 1.5 0 010 3z" fill="#ffffff"/>
    <path d="M32 27c-3.038 0-5.5 2.462-5.5 5.5s2.462 5.5 5.5 5.5 5.5-2.462 5.5-5.5-2.462-5.5-5.5-5.5z" fill="#ffffff"/>
</svg>
