<?xml version="1.0" encoding="UTF-8"?>
<svg width="400" height="300" viewBox="0 0 400 300" fill="none" xmlns="http://www.w3.org/2000/svg">
    <!-- Books Stack -->
    <g transform="translate(50, 180)">
        <rect width="300" height="40" rx="4" fill="#E0E7FF"/>
        <rect y="15" width="280" height="40" rx="4" fill="#C7D2FE"/>
        <rect y="30" width="260" height="40" rx="4" fill="#A5B4FC"/>
    </g>
    
    <!-- Character -->
    <g transform="translate(150, 60)">
        <!-- Head -->
        <circle cx="50" cy="50" r="30" fill="#F3F4F6"/>
        <!-- Body -->
        <path d="M30 85 h40 v60 h-40 z" fill="#F3F4F6"/>
        <!-- Glasses -->
        <path d="M35 45 h30" stroke="#4B5563" stroke-width="2"/>
        <circle cx="40" cy="45" r="8" stroke="#4B5563" stroke-width="2" fill="none"/>
        <circle cx="60" cy="45" r="8" stroke="#4B5563" stroke-width="2" fill="none"/>
    </g>
    
    <!-- Globe Icon -->
    <g transform="translate(250, 40)">
        <circle cx="25" cy="25" r="25" fill="#60A5FA"/>
        <path d="M10 25 h30 M25 10 v30" stroke="white" stroke-width="2"/>
        <circle cx="25" cy="25" r="20" stroke="white" stroke-width="2" fill="none"/>
    </g>
    
    <!-- Mail Icon -->
    <g transform="translate(50, 40)">
        <rect width="50" height="35" rx="4" fill="#818CF8"/>
        <path d="M0 0 l25 20 l25 -20" stroke="white" stroke-width="2" fill="none"/>
    </g>
    
    <!-- Chat Bubble -->
    <g transform="translate(300, 100)">
        <path d="M0 0 h60 v40 h-45 l-15 15 v-55" fill="#6366F1"/>
        <path d="M10 15 h40 M10 25 h30" stroke="white" stroke-width="2"/>
    </g>
    
    <!-- Decorative Elements -->
    <circle cx="30" cy="150" r="5" fill="#818CF8"/>
    <circle cx="350" cy="80" r="3" fill="#818CF8"/>
    <circle cx="380" cy="200" r="4" fill="#818CF8"/>
    <circle cx="100" cy="250" r="3" fill="#818CF8"/>
</svg>
